<?xml version="1.0" encoding="UTF-8" standalone="no"?>
<!-- Generator: visioncortex VTracer 0.6.12 -->

<svg
   version="1.1"
   width="850"
   height="852"
   id="svg140"
   sodipodi:docname="logo.svg"
   xmlns:inkscape="http://www.inkscape.org/namespaces/inkscape"
   xmlns:sodipodi="http://sodipodi.sourceforge.net/DTD/sodipodi-0.dtd"
   xmlns="http://www.w3.org/2000/svg"
   xmlns:svg="http://www.w3.org/2000/svg">
  <defs
     id="defs144" />
  <sodipodi:namedview
     id="namedview142"
     pagecolor="#ffffff"
     bordercolor="#000000"
     borderopacity="0.25"
     inkscape:showpageshadow="2"
     inkscape:pageopacity="0.0"
     inkscape:pagecheckerboard="0"
     inkscape:deskcolor="#d1d1d1" />
  <path
     d="m 663,136 c 31.79946,15.04182 51.04409,52.40931 43,87 -4.59885,10.05703 -7.66576,25.79654 -15.6489,33 -9.35087,22.10485 -34.9888,32.05609 -58.4011,32.43 -23.15136,-1.96865 -49.87676,-8.1655 -67.95,8.57 -4.60046,10.23111 -14.814,15.02703 -19,26 -9.98004,15.65616 -24.52273,29.93112 -36.6489,43 -3.56621,4.57728 -10.52447,15.16476 -17.08851,20.47483 -7.24867,7.74579 -11.06193,14.7591 -19.21759,25.41392 -8.13448,5.98456 -10.29599,16.22924 -17.6939,19.11125 -8.01165,9.26383 -10.77282,15.90739 -20,24 -9.55567,15.06659 -21.7395,27.54874 -33.26575,42.37197 -4.3938,3.62357 -7.73756,9.67659 -11.08535,13.27693 -8.42781,10.10648 -15.79708,24.84151 -27.18,36.2611 -18.04285,25.58208 -43.90916,46.31166 -55.90699,75.68121 -3.00741,18.85846 -4.09216,33.14735 -8.91801,49.56379 -8.65788,14.76533 -14.03226,28.42275 -29.43125,39.01875 -20.6188,10.81311 -49.6971,16.86501 -69.71375,7.94625 -25.46276,-7.18623 -52.67721,-29.87666 -53.57,-58.41 -4.5691,-19.74433 0.0823,-43.67175 11.28,-58.21 10.35207,-15.29731 22.26437,-32.45659 44.37,-34.39 28.29251,-15.21198 58.74792,15.17496 84.07,6.2411 27.32334,-15.26821 42.04737,-45.94268 63.62785,-68.07901 C 364.67047,484.35335 385.32637,466.93625 400.77,444.37 414.62754,431.89007 424.88144,409.86832 440,395 c 16.74089,-22.44266 37.25103,-41.97013 54,-64 8.53686,-10.96377 22.04564,-25.10011 30.33,-35.75 16.38635,-19.72774 40.12636,-48.12493 23.67,-73.25 -0.68913,-28.92475 7.63887,-56.55399 29.76074,-74.63965 17.05279,-12.10103 34.19294,-20.10581 56.84658,-18.08979 10.01942,-0.8511 19.90662,1.2286 28.39268,6.72944 z m -58,33 c -8.35459,7.35434 -19.63321,13.46153 -22.24875,29.25125 -4.19956,20.21277 4.89554,34.86727 21.44937,48.49125 26.36252,17.5398 62.45024,-1.56906 68.71403,-31.11447 C 679.69422,195.93487 662.66603,174.15089 647,167.3511 634.37175,161.34636 617.24074,160.50352 605,169 Z M 194,612 c -18.51699,9.08957 -21.15211,40.70924 -7.44359,56.90016 16.8064,28.243 62.34722,25.16613 75.97668,-4.28403 14.17917,-18.43397 4.44428,-42.3777 -11.97434,-54.71863 C 234.28531,596.35239 209.49117,597.91994 194,612 Z"
     fill="#d2fd48"
     id="path2" />
  <path
     d="m 706,303 c -0.31765,104.23092 1.30492,208.51282 -0.44449,312.70822 -1.88539,30.79194 -15.1139,61.13367 -40.15049,80.60994 -21.23385,16.69724 -49.02704,26.17351 -75.86502,26.82184 -25.6974,1.85467 -50.21544,-3.98928 -75.22062,-7.10922 -29.37035,-7.65116 -53.5656,-22.6221 -77.69938,-39.65078 -8.21146,-7.27014 -17.0695,-15.07699 -23.3,-20.05 -19.29686,-13.8506 -26.54803,-37.94549 -36.33562,-57.33859 -4.40404,-15.44337 17.22366,-38.32947 25.37562,-41.12141 5.69959,28.59027 16.25177,58.31123 38.53609,78.03984 23.2743,16.68749 47.88257,34.82764 76.63785,42.45431 C 560.14171,691.76479 614.50405,696.76896 648,661 679.88002,627.84542 669.73049,578.4943 671.62855,536.79625 671.75041,464.1975 671.92066,391.59883 672,319 c 11.63277,-4.85115 22.38114,-11.56189 34,-16 z"
     fill="#d1fc48"
     id="path4" />
  <path
     d="m 310.03809,135.02026 c 22.52917,2.56013 38.33292,14.25815 57.72,22.57 17.34311,10.82521 37.59432,18.24466 52.56,35.6225 13.20649,19.75104 33.96737,35.87678 43.34375,60.12625 10.24874,14.18192 21.77849,43.90554 -0.22125,58.415 -18.16464,26.69807 -15.07885,-21.04578 -26.57308,-32.33139 -16.74255,-38.47883 -48.17493,-69.04571 -83.27192,-90.98111 -14.69605,-11.43986 -35.3125,-14.90996 -52.88375,-20.42125 -24.8896,-8.601 -51.18881,-3.14561 -74.03219,8.55625 -14.81405,7.38103 -19.49083,8.73396 -29.48156,21.78375 -28.37641,37.73907 -16.87962,87.24918 -19.36297,131.07252 -0.36545,67.14498 0.45303,134.35766 -0.62578,201.45623 -9.12378,5.16102 -32.32534,31.18905 -33.22789,12.82125 0.26494,-99.78959 -1.30514,-199.62641 0.24338,-299.38495 2.32238,-22.66763 8.48948,-43.44163 21.63451,-60.0588 18.26788,-20.31146 35.5708,-43.62103 64.11418,-49.23949 25.88783,-5.79351 54.39087,-11.1707 80.06457,-0.007 z"
     fill="#d3fd4a"
     id="path6" />
  <path
     d="m 531.1875,460.8125 c 30.32538,-0.73299 64.70376,16.67777 71.2,48.55 13.95618,23.92096 3.76954,54.32813 -6.39,72.64 -5.63548,18.95776 -30.33384,28.48169 -45.97922,34.00062 -27.98229,8.50667 -57.07155,-1.75848 -78.53078,-21.46062 -20.37743,-20.02538 -27.21568,-54.31459 -18.74,-81.82 11.32782,-28.99074 39.07784,-54.4137 71.72625,-51.94625 l 3.36203,7.8e-4 z m -25.19,38.19 c -14.5407,10.25715 -26.09445,34.74903 -18.04771,55.40199 9.69067,25.62482 36.0349,39.33641 62.04771,26.71801 19.57593,-16.18651 36.67929,-46.12401 16.145,-69.14484 -15.55497,-14.98122 -39.39157,-23.79587 -60.145,-12.97516 z"
     fill="#d2fd47"
     id="path8" />
  <path
     d="m 343,262 c 20.25436,6.42563 37.09026,18.87186 48.225,39.1525 8.71788,16.05941 12.8102,43.30841 4.775,63.8475 -3.35345,11.94433 -13.54606,23.27608 -22,32 -4.16825,4.13749 -12.30379,7.60328 -16,11.6489 -35.20075,18.72325 -85.98104,8.88868 -106.18292,-27.75476 -17.21265,-25.90464 -13.31854,-62.66322 3.61454,-87.76365 12.54814,-13.29484 28.32744,-30.25332 45.4733,-31.13219 13.97314,0.15146 28.25941,-2.10705 42.09508,0.002 z m -52.62,44.64 c -24.41258,16.35571 -15.98857,48.95313 2.05684,65.79783 C 316.08973,395.06304 353.52429,375.72827 364,355 374.57469,329.62828 359.14594,303.87461 334.52375,296.0425 319.18939,290.67336 301.63918,294.96369 290.38,306.64 Z"
     fill="#d1fd4a"
     id="path10" />
  <path
     d="m 707,299 c -0.23266,109.48893 1.29169,219.03922 -0.18,328.4875 -11.62455,31.08784 1.47018,-20.14542 -1.42938,-31.67516 C 705.39424,498.20865 705.84598,400.60411 706,303 c -15.83815,13.27947 -16.00353,2.96483 1,-4 z"
     fill="#d4f663"
     id="path12" />
  <path
     d="m 177,252 c 2.33881,9.53686 0.32925,23.42208 1,34.62699 0,82.45767 0,164.91534 0,247.37301 -9.7709,7.22654 -26.44455,12.16295 -5.6625,0.01 9.58377,-5.28102 2.4783,-21.54133 4.6625,-31.69028 0,-83.43991 0,-166.87981 0,-250.31972 z"
     fill="#d6f766"
     id="path14" />
  <path
     d="m 143,290 c 2.33881,9.53686 0.32925,23.42208 1,34.62699 0,75.45767 0,150.91534 0,226.37301 17.80335,-8.85013 -6.24726,14.01461 -1,-6.54233 0,-84.81922 0,-169.63845 0,-254.45767 z"
     fill="#d6f863"
     id="path16" />
  <path
     d="m 323,137 c -23.69143,-1.51465 -47.82387,-11.29677 -72.3433,-5.56306 -13.98066,5.72158 -33.86447,5.23627 -7.5788,-2.44349 C 269.69276,122.71583 297.47361,128.94604 323,137 Z"
     fill="#c8e75e"
     id="path18" />
  <path
     d="m 294,262 c -19.54493,7.46711 -44.14987,40.3496 -48.94455,49.43455 C 250.98483,289.47343 272.03353,267.66886 294,262 Z"
     fill="#ceef5d"
     id="path20" />
  <path
     d="m 211,183 c -2.05597,11.2461 -32.74999,37.53738 -31.1855,61.20229 -5.71384,8.40485 1.79366,-31.20117 10.92454,-38.20977 C 196.06627,194.45262 207.52941,189.41419 211,183 Z"
     fill="#cff05d"
     id="path22" />
  <path
     d="m 162,696 c 18.54045,16.7176 38.75278,28.02163 63.44,26.69 18.7006,4.22042 -24.53966,2.19261 -30.16125,-2.92625 C 183.43196,714.39973 168.22888,707.5129 162,696 Z"
     fill="#c8e958"
     id="path24" />
  <path
     d="m 548,222 c 13.62416,16.41513 2.52708,51.92856 -16,60 16.68247,-15.44493 21.85482,-38.44048 16,-60 z"
     fill="#ccee5a"
     id="path26" />
  <path
     d="m 319.9375,257.625 c 13.87031,-1.86007 45.198,7.68297 44.47625,15.13125 -15.8746,-11.2082 -40.67214,-15.95926 -61.32656,-11.61938 -24.00475,4.34701 11.75816,-6.79006 16.85031,-3.51187 z"
     fill="#cdef5e"
     id="path28" />
  <path
     d="m 194,153 c -6.88191,15.42033 -27.23457,23.8023 -31.80375,39.98875 -10.84984,7.74743 11.16171,-23.77812 18.87609,-28.97816 C 185.13691,160.06541 189.45939,156.38631 194,153 Z"
     fill="#cff05d"
     id="path30" />
  <path
     d="m 456,429 c -2.3546,13.12075 -25.97758,33.5315 -37,49 3.62849,-11.99501 19.49598,-23.36378 25,-35 3.88995,-1.46759 9.69961,-11.15173 12,-14 z"
     fill="#cff15c"
     id="path32" />
  <path
     d="m 383,385 c 0.4715,13.58057 -38.04413,38.32564 -51,31 15.08613,-2.56645 26.9936,-6.79029 35,-15 7.34468,-4.1196 9.52553,-7.00078 16,-16 z"
     fill="#cdee5d"
     id="path34" />
  <path
     d="m 417,422 c -8.42265,21.09183 -31.05959,38.578 -44.77219,58.49563 -7.48679,1.33486 22.68059,-29.0574 28.87932,-38.30979 C 406.63573,435.64324 411.91582,428.89289 417,422 Z"
     fill="#cdee5e"
     id="path36" />
  <path
     d="m 421,195 c 19.40742,16.70094 35.69809,38.28046 45,62 -13.20575,-19.03616 -25.2664,-43.10794 -44.375,-58.945 z"
     fill="#ceef62"
     id="path38" />
  <path
     d="m 599,173 c -6.35435,6.02242 -19.14035,40.77508 -15,49.3511 -5.23251,-13.64624 -0.26393,-39.11094 13.6489,-47.3511 2.07047,0.95344 1.27308,-0.96099 1.3511,-2 z"
     fill="#ceee5d"
     id="path40" />
  <path
     d="m 318,173 c 21.28227,3.98053 36.58474,16.00482 56,28 -13.73479,-3.46169 -32.50596,-20.47245 -50.39,-24.3 l -4.09125,-1.6025 z"
     fill="#cded5f"
     id="path42" />
  <path
     d="m 151,208 c -1.81834,21.25453 -9.1804,49.38739 -6.8775,73.915 -1.51752,20.14905 -1.60086,-24.78695 -1.12547,-32.92563 C 143.61643,235.03019 146.05183,221.09934 151,208 Z"
     fill="#d0ef60"
     id="path44" />
  <path
     d="m 302,647 c 8.0144,13.06157 -11.52202,53.08893 -21,49 13.17977,-6.47272 15.2364,-27.38913 21,-39.6489 0,-3.11704 0,-6.23407 0,-9.3511 z"
     fill="#cced5b"
     id="path46" />
  <path
     d="m 412,656 c 6.82026,3.92363 12.65054,9.30733 20,16.6489 8.922,5.61917 51.2312,31.69625 18.91797,16.01266 C 436.20991,680.45943 420.58779,671.02083 412,656 Z"
     fill="#cdee5a"
     id="path48" />
  <path
     d="m 647,169 c 20.08679,1.65595 33.168,38.71211 24.89,45.29 C 672.13864,195.5227 662.06881,178.50423 647,169 Z"
     fill="#cff05b"
     id="path50" />
  <path
     d="m 380,581 c -11.86131,19.03282 14.81628,42.08716 14,55 -7.47311,-15.68012 -29.16213,-38.76705 -14,-55 z"
     fill="#ccec5b"
     id="path52" />
  <path
     d="m 527.8125,458.75 c 12.74184,-3.82369 53.44899,15.09261 21.33219,4.61953 -10.86618,-4.46064 -62.35107,3.37788 -26.81969,-4.58547 z"
     fill="#cdef5c"
     id="path54" />
  <path
     d="m 496,382 c -5.66187,12.93146 -33.25226,42.47623 -32,40 5.54967,-9.27465 15.02148,-21.54415 21.6489,-28 1.44698,-4.80481 6.20063,-8.84728 10.3511,-12 z"
     fill="#cdee5d"
     id="path56" />
  <path
     d="m 395,308 c 10.69099,18.39423 7.31988,43.00876 0.22,62.35 -5.52994,5.24965 9.29406,-28.40161 3.25818,-41.90145 C 398.3933,321.44339 394.50882,314.95796 395,308 Z"
     fill="#cbec60"
     id="path58" />
  <path
     d="m 415,480 c -3.66793,9.68882 -25.51433,37.047 -33,39 7.12809,-8.06316 9.49715,-10.87504 16,-17 2.43593,-7.89067 12.24165,-14.61603 17,-22 z"
     fill="#d0f25c"
     id="path60" />
  <path
     d="m 503,575 c 15.01409,14.0351 49.7608,2.03317 48.84125,4.7375 C 537.05287,589.04653 512.42592,587.2237 503,575 Z"
     fill="#cef159"
     id="path62" />
  <path
     d="m 561,163 c -4.50489,11.01478 -13.74609,53.77475 -14.11034,51.46171 C 546.1138,196.21836 552.05222,178.67395 561,163 Z"
     fill="#c8e659"
     id="path64" />
  <path
     d="m 337,142 c 15.28107,6.43589 41.07192,14.59983 47,26 -15.02583,-10.80871 -33.76483,-16.94948 -47,-26 z"
     fill="#cfef61"
     id="path66" />
  <path
     d="m 472,595 c 11.70976,12.59269 44.49557,22.17103 44.67,23.89875 C 499.85308,617.62547 482.25667,607.75773 472,595 Z"
     fill="#cced5a"
     id="path68" />
  <path
     d="m 560,507 c 18.02242,4.77686 18.68115,45.64075 10.44,46.34 C 575.79634,536.60881 570.02782,520.39278 560,507 Z"
     fill="#cdee58"
     id="path70" />
  <path
     d="m 600,502 c 11.03153,11.09466 12.5716,43.82622 7.94,48.97 1.22868,-17.12668 -3.42142,-32.96916 -7.94,-48.97 z"
     fill="#c1e158"
     id="path72" />
  <path
     d="m 605,133 c -15.34284,5.50232 -30.84749,19.67536 -43,29 11.50659,-12.33255 24.35082,-30.12262 43,-29 z"
     fill="#cfef5f"
     id="path74" />
  <path
     d="m 647,709 c -9.51827,6.66444 -44.20718,19.1955 -42.75625,11.93125 C 619.12283,720.86124 632.95408,709.4098 647,709 Z"
     fill="#cced59"
     id="path76" />
  <path
     d="m 266.69531,162.76953 c 9.38065,-3.47035 57.02974,10.03025 31.87,6.29 -6.0302,-3.89074 -55.41157,-2.56065 -31.87,-6.29 z"
     fill="#d0f05f"
     id="path78" />
  <path
     d="m 534,495 c -13.58201,-1.46493 -38.38855,15.3132 -40.6225,16.7 C 501.79508,500.03928 516.01948,491.3617 534,495 Z"
     fill="#caeb58"
     id="path80" />
  <path
     d="m 650.5625,284.9375 c 7.45811,10.48995 -65.21347,2.56321 -26.31,2.62 8.89519,1.08573 17.5815,-1.49976 26.31,-2.62 z"
     fill="#d0f25d"
     id="path82" />
  <path
     d="m 571,606 c -5.76509,10.41634 -35.97707,16.25652 -50,13 19.24704,-1.29005 35.40066,-4.24939 50,-13 z"
     fill="#c9ea58"
     id="path84" />
  <path
     d="m 564,297 c 5.222,5.22095 -33.13713,43.64432 -18.20016,22.80065 C 553.00384,313.15728 558.37374,304.62221 564,297 Z"
     fill="#d0f25f"
     id="path86" />
  <path
     d="m 145,622 c -0.58782,10.23025 3.29699,67.09455 -3.65625,27.92125 C 140.89121,640.47708 142.46843,631.07021 145,622 Z"
     fill="#bfdd52"
     id="path88" />
  <path
     d="m 531,283 c -2.83567,9.95761 -24.35803,36.22134 -28.26422,35.31313 C 512.01655,306.42972 522.19898,295.26606 531,283 Z"
     fill="#ccec5e"
     id="path90" />
  <path
     d="m 289,412 c 11.54741,3.8341 64.30619,6.68588 25.82637,6.8998 C 306.4082,417.92575 295.11388,417.10809 289,412 Z"
     fill="#cbec5c"
     id="path92" />
  <path
     d="m 707,197 c 1.9931,12.50937 1.53927,34.97908 -7,45 5.01367,-16.10839 6.40117,-27.61209 7,-45 z"
     fill="#ceee61"
     id="path94" />
  <path
     d="m 635,163 c 33.00822,10.27833 -25.64704,-0.6927 -30,6 9.08295,-5.175 19.67033,-6.83328 30,-6 z"
     fill="#d3f45f"
     id="path96" />
  <path
     d="m 648,130 c -9.53686,2.33881 -23.42208,0.32925 -34.62699,1 -21.6247,-0.46432 26.8218,-6.51829 34.62699,-1 z"
     fill="#c1e158"
     id="path98" />
  <path
     d="m 522,350 c 3.30072,5.78965 -40.37772,48.46331 -18,21 4.77342,-3.01514 11.79161,-14.66084 16,-20 l 1.47482,-0.73741 z"
     fill="#d0f15f"
     id="path100" />
  <path
     d="m 355,310 c 13.74618,3.68275 14.38223,43.46987 7.44,42.02 3.41278,-14.37321 0.72394,-29.6943 -7.44,-42.02 z"
     fill="#d1f35f"
     id="path102" />
  <path
     d="m 526,717 c 11.91945,-0.26389 55.80746,8.6791 22.49609,5.95234 C 542.58682,720.19914 528.62761,722.34546 526,717 Z"
     fill="#cced59"
     id="path104" />
  <path
     d="m 247,567 c -6.78642,-0.29315 -38.41658,-1.14162 -51,1 16.358,-5.31444 34.54885,-6.72344 51,-1 z"
     fill="#cef15c"
     id="path106" />
  <path
     d="m 449,528 c 0.54882,10.47666 10.22049,49.07208 5.59,41.6525 C 448.40407,556.59075 448.69383,542.09559 449,528 Z"
     fill="#caeb59"
     id="path108" />
  <path
     d="m 244,311 c 0.57891,8.80674 -2.94611,60.54947 -4.38,25.56 0.0975,-8.6917 1.92048,-17.25915 4.38,-25.56 z"
     fill="#c0df57"
     id="path110" />
  <path
     d="m 370,275 c 16.76959,3.73817 33.25137,52.79162 14.22312,17.29062 C 380.86941,284.88394 372.55558,281.73686 370,275 Z"
     fill="#cbec5e"
     id="path112" />
  <path
     d="m 416,603 c 8.59914,9.85423 39.32996,48.43956 13.88578,22.22281 C 425.51338,618.04874 416.77799,611.72287 416,603 Z"
     fill="#c8e957"
     id="path114" />
  <path
     d="m 267,710 c 1.29219,11.59444 -56.25254,18.94119 -19.71438,8.76188 C 254.16937,716.5373 260.21821,712.46024 267,710 Z"
     fill="#d0f15c"
     id="path116" />
  <path
     d="m 286,309 c -2.06516,5.99298 -10.09051,29.89643 -10.24109,35.41484 C 272.95997,332.21755 277.39015,317.94682 286,309 Z"
     fill="#d1f360"
     id="path118" />
  <path
     d="m 564,723 c 12.66667,0 25.33333,0 38,0 -9.32642,2.69574 -30.26608,3.68435 -38,0 z"
     fill="#cced59"
     id="path120" />
  <path
     d="m 166,587 c -2.81233,8.40043 -19.91725,32.93595 -19.73,32.06375 C 149.67376,606.75778 157.87202,596.56625 166,587 Z"
     fill="#cced5a"
     id="path122" />
  <path
     d="m 599.1875,284.25 c 33.18608,2.88467 -26.04961,4.84917 -25.055,4.98375 7.21877,-4.90059 16.56905,-5.55477 25.055,-4.98375 z"
     fill="#cbec5b"
     id="path124" />
  <path
     d="m 607,553 c 6.90946,11.15079 -21.06864,43.49048 -8.56,24.25 3.90623,-6.85351 5.21167,-15.2794 8.56,-24.25 z"
     fill="#cdef5c"
     id="path126" />
  <path
     d="m 498,324 c 0.58274,11.51328 -39.06897,45.37943 -13.60029,16.6625 C 488.98795,335.15339 493.5273,329.60339 498,324 Z"
     fill="#caeb5c"
     id="path128" />
  <path
     d="m 444,295 c 10.48216,11.83128 8.22206,50.83323 2.51,17.23 -0.95925,-5.72439 -1.84185,-11.46354 -2.51,-17.23 z"
     fill="#cdee61"
     id="path130" />
  <path
     d="m 189,614 c -3.14212,7.10792 -10.46082,30.30321 -11,40 -1.57078,-14.63341 2.19873,-30.09444 11,-40 z"
     fill="#cdee5a"
     id="path132" />
  <path
     d="m 700,242 c 2.19629,14.77209 -29.52855,35.92606 -8.3511,14 3.40444,-6.20704 4.45436,-8.41169 8.3511,-14 z"
     fill="#cceb5e"
     id="path134" />
  <path
     d="m 262,623 c 16.06113,7.96486 -0.17829,56.80818 4.08875,18.02625 C 265.86478,634.77172 263.41564,629.00347 262,623 Z"
     fill="#caec55"
     id="path136" />
  <path
     d="m 249,568 c 9.77683,7.85931 56.41925,7.33677 23.02125,9.83549 C 264.75045,576.23364 252.17894,574.48272 249,568 Z"
     fill="#d3f65f"
     id="path138" />
</svg>
