<?xml version="1.0" encoding="UTF-8" standalone="no"?>
<!-- Generator: visioncortex VTracer 0.6.12 -->

<svg
   version="1.1"
   width="850"
   height="852"
   id="svg140"
   sodipodi:docname="logo.svg"
   xmlns:inkscape="http://www.inkscape.org/namespaces/inkscape"
   xmlns:sodipodi="http://sodipodi.sourceforge.net/DTD/sodipodi-0.dtd"
   xmlns="http://www.w3.org/2000/svg"
   xmlns:svg="http://www.w3.org/2000/svg">
  <defs
     id="defs144" />
  <sodipodi:namedview
     id="namedview142"
     pagecolor="#ffffff"
     bordercolor="#000000"
     borderopacity="0.25"
     inkscape:showpageshadow="2"
     inkscape:pageopacity="0.0"
     inkscape:pagecheckerboard="0"
     inkscape:deskcolor="#d1d1d1" />
  <path
     d="m 663,136 c 38.02943,17.30663 56.55704,67.42823 36.44466,104.57009 -9.84244,26.38914 -33.71713,47.62006 -63.08329,47.67694 -25.38223,-0.33781 -60.88414,-11.38074 -76.68228,15.58865 -15.67708,17.45104 -26.50814,38.79859 -44.29816,54.68472 -19.58536,22.41051 -38.2553,45.49869 -56.28808,69.1192 -20.77189,20.11451 -36.43488,45.23976 -55.83942,66.97925 -25.19133,30.75004 -47.11931,64.12639 -74.44622,93.2562 -31.03884,26.02646 -18.56807,69.68658 -39.86889,100.32053 -18.16692,34.33002 -66.28946,43.32936 -99.66413,27.52169 -30.34982,-11.23122 -48.40937,-42.6203 -45.65801,-74.3289 1.3111,-28.03168 19.03894,-54.66543 42.51095,-69.24046 30.85788,-18.67864 62.40402,2.81837 94.06661,3.43823 33.97544,-14.48651 49.64086,-52.05889 74.64715,-77.34141 28.21586,-31.16653 55.45517,-63.02063 79.70114,-97.3664 36.08319,-43.71209 75.35394,-85.03654 108.81742,-130.84973 22.77596,-28.95457 -7.55526,-63.45897 12.88703,-94.14141 C 572.58005,136.69167 625.24733,116.69766 663,136 Z m -58,33 c -25.71023,13.37067 -31.41691,50.60601 -9.28578,69.94048 23.82912,30.17774 74.58203,8.58707 78.19875,-27.02525 C 678.88855,177.51633 633.78238,149.56407 605,169 Z M 194,612 c -30.94896,18.91246 -13.47109,71.63931 20.38783,75.72132 33.67007,8.63779 68.91385,-32.88537 49.07942,-63.37717 C 250.13643,599.49767 214.90163,592.2105 194,612 Z"
     fill="#d2fd48"
     id="path2" />
  <path
     d="m 706,303 c -0.57996,106.15093 1.87904,212.36335 -0.93104,318.47389 -3.37338,52.72323 -49.0946,94.62018 -100.38139,100.38095 -35.59386,4.06022 -72.18623,-1.06914 -106.37691,-10.86516 -38.25182,-14.94603 -72.59273,-39.93084 -99.99747,-70.18976 -11.40056,-20.83152 -33.62929,-48.71297 -11.08229,-70.033 22.9975,-32.13826 18.48858,25.83434 33.18204,39.31928 17.35964,30.81172 50.84866,47.74179 81.36499,62.95798 45.18256,16.83352 104.10371,27.19591 143.02169,-8.8093 35.23334,-32.80396 25.21303,-84.48661 26.82893,-127.43863 C 671.75041,464.1975 671.92066,391.59882 672,319 c 11.57382,-4.82032 22.27789,-11.51309 34,-16 z"
     fill="#d1fc48"
     id="path4" />
  <path
     d="m 310.03809,135.02026 c 33.44318,6.04176 62.36506,25.93418 91.64586,42.13888 22.73621,16.68425 38.50996,41.22926 55.62781,63.3189 11.69597,20.488 31.76936,52.80918 6.12883,71.27597 -21.49965,22.79525 -17.32621,-32.84816 -31.66017,-42.94435 -21.9952,-40.27865 -58.35933,-73.04154 -100.12222,-91.6449 -29.42674,-9.70549 -61.7026,-20.39005 -91.79674,-6.46026 -27.56697,8.29303 -50.96825,29.10439 -57.31091,57.89435 -9.75611,41.28882 -2.03772,84.08465 -4.803,126.01612 -0.10308,58.75792 0.40603,117.52044 -0.53821,176.27404 -11.75152,12.12628 -40.82978,32.32116 -33.20222,-1.21196 0.37582,-96.51705 -1.84991,-193.11229 0.69898,-289.57918 2.64501,-40.06067 30.62652,-72.32612 61.42862,-95.25199 28.23449,-14.71202 62.87638,-19.88388 94.15374,-13.26839 l 4.90398,1.53924 4.84565,1.90329 z"
     fill="#d3fd4a"
     id="path6" />
  <path
     d="m 531.1875,460.8125 c 37.67678,-2.42166 70.64816,25.99841 76.66336,62.56715 4.3434,26.93608 -5.70373,57.03895 -24.75276,76.25672 -29.40435,23.13777 -73.5105,26.53919 -103.2228,1.83384 -40.98938,-29.0766 -40.79263,-97.7417 0.7401,-126.51766 14.31149,-11.98218 32.41798,-15.48756 50.5721,-14.14005 z m -25.19,38.19 c -27.48857,18.78894 -27.35588,64.68971 2.81175,80.9865 29.45958,19.19699 63.38494,-9.79358 66.41035,-40.28483 3.80749,-33.48158 -42.22859,-55.41111 -69.2221,-40.70167 z"
     fill="#d2fd47"
     id="path8" />
  <path
     d="m 343,262 c 48.05633,12.26248 73.25953,74.03579 46.79444,116.07372 -20.68642,35.28219 -67.73266,50.07316 -104.78409,32.64207 -47.98882,-19.51966 -59.24164,-90.22986 -22.19191,-125.3199 17.56556,-24.05514 47.70068,-26.25266 74.97355,-23.99499 L 343,262.0003 Z m -52.62,44.64 c -35.46719,23.65696 -1.95164,86.84138 37.60333,74.79626 31.72818,-4.43848 52.82155,-44.56449 29.47544,-69.9872 C 341.49073,291.35564 308.60375,286.91043 290.38,306.64 Z"
     fill="#d1fd4a"
     id="path10" />
  <path
     d="m 707,299 c -0.23278,109.4956 1.29179,218.99578 -0.18,328.4875 -10.81182,23.91184 2.57643,-27.13814 -1.42888,-36.25033 C 705.40829,495.15778 705.84839,399.07916 706,303 c -16.97111,14.09819 -14.06341,1.15139 1,-4 z"
     fill="#d4f663"
     id="path12" />
  <path
     d="m 177,252 c 2.05827,59.22241 0.52319,118.74799 1,178.105 0,34.63167 0,69.26333 0,103.895 -20.39778,11.86425 -13.14262,5.51555 -1.19798,-5.74234 C 177.22994,436.38147 176.89224,344.04603 177,252 Z"
     fill="#d6f766"
     id="path14" />
  <path
     d="m 143,290 c 2.05827,59.22241 0.52319,118.74799 1,178.105 0,27.63167 0,55.26333 0,82.895 16.44615,-3.54842 -10.22964,8.41303 -1,-9.84068 0,-83.71977 0,-167.43955 0,-251.15932 z"
     fill="#d6f863"
     id="path16" />
  <path
     d="m 323,137 c -29.17533,-3.42596 -59.05452,-12.87166 -87.81592,-1.79689 -8.62847,-5.98444 32.74885,-11.27172 43.20893,-8.16149 C 293.60343,128.52993 308.45945,132.41878 323,137 Z"
     fill="#c8e75e"
     id="path18" />
  <path
     d="m 294,262 c -18.64835,3.62549 -53.73804,56.11943 -47.65908,45.32258 C 254.28567,286.28744 272.14417,268.19222 294,262 Z"
     fill="#ceef5d"
     id="path20" />
  <path
     d="m 211,183 c -11.09902,17.85467 -31.38606,47.3649 -33.1731,59.76339 C 178.69263,218.21057 193.52617,198.69491 211,183 Z"
     fill="#cff05d"
     id="path22" />
  <path
     d="m 162,696 c 17.12104,18.92134 45.7926,26.85551 67.40716,28.7331 C 204.50884,726.32661 176.98704,716.44977 162,696 Z"
     fill="#c8e958"
     id="path24" />
  <path
     d="m 548,222 c 18.2874,17.06603 -6.41923,59.33939 -13.0068,57.01779 C 549.21195,264.08365 553.53515,241.59105 548,222 Z"
     fill="#ccee5a"
     id="path26" />
  <path
     d="m 319.9375,257.625 c 12.82935,-3.17407 45.08717,9.20133 41.39839,13.10603 -19.81192,-12.28134 -44.23894,-12.83245 -66.45893,-8.76999 7.76885,-2.91881 16.6963,-6.01687 25.06054,-4.33604 z"
     fill="#cdef5e"
     id="path28" />
  <path
     d="m 194,153 c -8.86288,13.51001 -28.04066,31.39042 -34.51647,39.46062 C 167.26833,176.53781 179.96383,163.56924 194,153 Z"
     fill="#cff05d"
     id="path30" />
  <path
     d="m 456,429 c -4.30144,15.29981 -35.26614,46.07511 -35.10976,44.52948 C 431.66352,457.87946 444.89506,444.2349 456,429 Z"
     fill="#cff15c"
     id="path32" />
  <path
     d="m 383,385 c -1.25272,20.77841 -48.03364,37.04121 -45.49311,29.95534 C 355.83245,411.67647 372.57074,400.22746 383,385 Z"
     fill="#cdee5d"
     id="path34" />
  <path
     d="m 417,422 c -7.67306,18.05099 -39.47261,53.27551 -44.28998,54.37399 C 387.08935,457.94426 403.42864,441.10271 417,422 Z"
     fill="#cdee5e"
     id="path36" />
  <path
     d="m 421,195 c 17.93683,12.68102 42.63855,50.62896 42.53534,58.37495 C 451.36728,232.52047 436.18716,212.68913 421,195 Z"
     fill="#ceef62"
     id="path38" />
  <path
     d="m 599,173 c -11.53687,9.19102 -15.72817,49.69216 -16.48647,43.73649 C 579.34849,200.04779 587.36507,182.13217 599,173 Z"
     fill="#ceee5d"
     id="path40" />
  <path
     d="m 318,173 c 15.86291,1.52161 50.79495,22.98465 50.62494,26.11897 C 352.33114,189.23831 334.443,181.08838 318,173 Z"
     fill="#cded5f"
     id="path42" />
  <path
     d="m 151,208 c -3.51466,25.59227 -8.11476,54.81584 -7.76041,78.41525 C 142.31188,260.16694 141.34669,232.94623 151,208 Z"
     fill="#d0ef60"
     id="path44" />
  <path
     d="m 302,647 c 11.62381,15.31756 -18.58265,54.28788 -16.55002,45.9408 C 294.85348,680.33206 302.18632,662.98143 302,647 Z"
     fill="#cced5b"
     id="path46" />
  <path
     d="m 412,656 c 12.87348,12.59012 43.60271,29.88874 47.74846,36.7069 C 441.56901,684.36379 422.59679,673.6338 412,656 Z"
     fill="#cdee5a"
     id="path48" />
  <path
     d="m 647,169 c 20.13766,-0.0475 31.95802,39.44608 24.817,41.79303 C 670.97225,193.90835 661.28953,177.93478 647,169 Z"
     fill="#cff05b"
     id="path50" />
  <path
     d="m 380,581 c -12.71239,17.17354 16.60851,46.07685 12.44467,51.97666 C 384.71236,617.74974 365.61128,597.96999 380,581 Z"
     fill="#ccec5b"
     id="path52" />
  <path
     d="m 527.8125,458.75 c 15.16377,-3.4012 48.77451,14.00308 15.60266,3.46843 -14.62887,0.12636 -49.2048,0.53115 -16.14274,-3.46508 z"
     fill="#cdef5c"
     id="path54" />
  <path
     d="m 496,382 c -5.73478,11.71927 -27.86314,38.15836 -29.74824,36.39883 C 475.49988,405.73754 484.69522,392.62068 496,382 Z"
     fill="#cdee5d"
     id="path56" />
  <path
     d="m 395,308 c 11.75797,15.95459 6.21009,53.99187 -0.75506,59.91601 C 401.62534,347.7827 400.0139,328.40515 395,308 Z"
     fill="#cbec60"
     id="path58" />
  <path
     d="m 415,480 c -4.93251,11.77253 -28.78552,40.48566 -30.53268,36.20574 C 395.88061,504.90846 404.19106,491.82236 415,480 Z"
     fill="#d0f25c"
     id="path60" />
  <path
     d="m 503,575 c 9.45566,15.40635 70.80772,-1.98297 32.8589,10.22574 C 524.29723,586.59969 510.81313,584.4816 503,575 Z"
     fill="#cef159"
     id="path62" />
  <path
     d="m 561,163 c -5.21396,11.89296 -13.63037,57.24907 -14.17804,48.04956 C 546.8497,194.08115 552.65036,177.59724 561,163 Z"
     fill="#c8e659"
     id="path64" />
  <path
     d="m 337,142 c 14.28127,5.08802 44.24873,17.51006 44.14139,24.02622 C 367.16997,156.67638 350.99987,151.29156 337,142 Z"
     fill="#cfef61"
     id="path66" />
  <path
     d="m 472,595 c 7.78722,11.59645 47.32476,21.61439 38.34297,23.02955 C 495.49249,614.94621 481.64463,606.73076 472,595 Z"
     fill="#cced5a"
     id="path68" />
  <path
     d="m 560,507 c 25.79686,3.68335 9.71794,71.98554 12.13463,27.85646 C 570.84401,524.64355 566.11118,515.16284 560,507 Z"
     fill="#cdee58"
     id="path70" />
  <path
     d="m 600,502 c 15.77572,10.29996 8.46896,72.38753 7.1591,30.16818 C 605.69614,521.91455 602.80775,511.94547 600,502 Z"
     fill="#c1e158"
     id="path72" />
  <path
     d="m 605,133 c -13.07689,2.17459 -43.34611,31.51044 -38.6136,24.16707 C 576.53079,145.9301 588.27762,132.08372 605,133 Z"
     fill="#cfef5f"
     id="path74" />
  <path
     d="m 647,709 c -6.49028,7.6538 -49.11265,17.71529 -37.22325,11.41529 C 622.66475,718.19614 633.7528,709.64387 647,709 Z"
     fill="#cced59"
     id="path76" />
  <path
     d="m 266.69531,162.76953 c 10.31449,-4.29497 58.48989,11.56478 24.67227,4.58433 -2.14217,-1.371 -45.52285,-1.04958 -24.67227,-4.58433 z"
     fill="#d0f05f"
     id="path78" />
  <path
     d="m 534,495 c -14.01992,-3.7669 -55.7831,28.97581 -28.81111,5.33236 C 513.57809,494.73987 524.17877,492.9086 534,495 Z"
     fill="#caeb58"
     id="path80" />
  <path
     d="m 650.5625,284.9375 c -2.37843,12.66768 -60.01669,0.6238 -22.9836,2.86509 7.77238,0.21393 15.33028,-1.88338 22.9836,-2.86509 z"
     fill="#d0f25d"
     id="path82" />
  <path
     d="m 571,606 c -7.74906,13.76448 -49.8113,15.7866 -46.42706,12.73755 C 540.64395,617.48254 557.03323,614.49227 571,606 Z"
     fill="#c9ea58"
     id="path84" />
  <path
     d="m 564,297 c 2.79444,11.60368 -35.81354,42.618 -13.10839,17.50725 C 555.67057,308.98713 559.67512,302.86739 564,297 Z"
     fill="#d0f25f"
     id="path86" />
  <path
     d="m 145,622 c 0.65663,12.90971 1.3242,61.71196 -3.73291,24.38202 C 141.30075,638.1246 142.78582,629.93394 145,622 Z"
     fill="#bfdd52"
     id="path88" />
  <path
     d="m 531,283 c -1.87565,13.49404 -42.16444,51.43102 -17.56336,22.15185 C 519.4579,297.90358 525.50348,290.66095 531,283 Z"
     fill="#ccec5e"
     id="path90" />
  <path
     d="m 289,412 c 12.10603,3.11448 59.37703,7.33678 22.55047,6.53318 C 303.79746,417.55344 295.47314,416.9231 289,412 Z"
     fill="#cbec5c"
     id="path92" />
  <path
     d="m 707,197 c 7.42353,14.03876 -11.89833,65.11926 -2.73978,28.26754 C 706.05723,215.95376 706.67914,206.46423 707,197 Z"
     fill="#ceee61"
     id="path94" />
  <path
     d="m 635,163 c 32.91951,7.48809 -54.06229,5.26643 -19.23993,1.60768 C 622.01139,162.92617 628.55929,162.48126 635,163 Z"
     fill="#d3f45f"
     id="path96" />
  <path
     d="m 648,130 c -11.2456,2.74256 -60.29737,0.64632 -24.31022,-2.03489 C 631.75902,127.81875 640.36717,126.7114 648,130 Z"
     fill="#c1e158"
     id="path98" />
  <path
     d="m 522,350 c -0.97928,13.51074 -38.75333,43.14377 -14.07802,17.35381 C 513.24802,362.27142 515.82459,353.88213 522,350 Z"
     fill="#d0f15f"
     id="path100" />
  <path
     d="m 355,310 c 21.02794,4.10346 5.73813,66.80683 8.7383,25.6582 C 363.07198,326.54799 360.05363,317.61421 355,310 Z"
     fill="#d1f35f"
     id="path102" />
  <path
     d="m 526,717 c 14.18404,-1.31789 52.19908,10.43803 16.85761,4.61249 C 537.34096,720.48979 529.7656,722.09796 526,717 Z"
     fill="#cced59"
     id="path104" />
  <path
     d="m 247,567 c -12.52411,-1.87019 -52.70135,1.77464 -44.78681,-0.80354 C 216.82303,562.45111 232.62124,561.98816 247,567 Z"
     fill="#cef15c"
     id="path106" />
  <path
     d="m 449,528 c 1.85127,12.02649 11.59834,62.85779 1.02213,26.44997 C 448.61821,545.70664 448.81139,536.82018 449,528 Z"
     fill="#caeb59"
     id="path108" />
  <path
     d="m 244,311 c 1.57764,14.22951 -4.87759,56.6184 -4.00036,19.06675 C 240.67041,323.59244 242.15434,317.23087 244,311 Z"
     fill="#c0df57"
     id="path110" />
  <path
     d="m 370,275 c 14.82688,1.01827 30.68517,47.50945 14.22312,17.29062 C 381.14369,285.14535 372.97932,282.18643 370,275 Z"
     fill="#cbec5e"
     id="path112" />
  <path
     d="m 416,603 c 10.99084,10.62723 35.46663,47.24081 9.98093,16.95059 C 421.82411,614.87944 416.74693,609.934 416,603 Z"
     fill="#c8e957"
     id="path114" />
  <path
     d="m 267,710 c -5.75593,15.44987 -51.53326,15.76157 -14.68362,6.80031 C 257.24237,714.59842 261.9136,711.84526 267,710 Z"
     fill="#d0f15c"
     id="path116" />
  <path
     d="m 286,309 c -5.05129,14.90843 -14.61421,52.36367 -9.39884,16.48849 C 278.41617,319.37506 281.57428,313.61629 286,309 Z"
     fill="#d1f360"
     id="path118" />
  <path
     d="m 564,723 c 12.66667,0 25.33333,0 38,0 -12.28752,2.63303 -25.876,4.00283 -38,0 z"
     fill="#cced59"
     id="path120" />
  <path
     d="m 166,587 c -5.51443,15.0771 -29.75346,46.22504 -11.63658,15.00448 C 157.85949,596.71787 161.902,591.82405 166,587 Z"
     fill="#cced5a"
     id="path122" />
  <path
     d="m 599.1875,284.25 c 29.87862,4.54188 -58.63467,7.17853 -6.47971,-0.15133 z"
     fill="#cbec5b"
     id="path124" />
  <path
     d="m 607,553 c 7.83636,9.59768 -21.59693,44.992 -6.04542,18.8311 C 603.27096,565.64975 604.66645,559.17439 607,553 Z"
     fill="#cdef5c"
     id="path126" />
  <path
     d="m 498,324 c 0.5053,12.25994 -34.69191,40.15814 -13.60029,16.6625 C 488.98795,335.15339 493.5273,329.60339 498,324 Z"
     fill="#caeb5c"
     id="path128" />
  <path
     d="m 444,295 c 9.81236,7.27041 7.81214,48.3197 2.51,17.23 -0.95925,-5.72439 -1.84185,-11.46354 -2.51,-17.23 z"
     fill="#cdee61"
     id="path130" />
  <path
     d="m 189,614 c -6.53696,11.2473 -13.66578,58.78807 -10.53046,23.52487 C 179.90501,628.98086 183.20764,620.55088 189,614 Z"
     fill="#cdee5a"
     id="path132" />
  <path
     d="m 700,242 c 0.67005,16.31341 -26.84543,33.04999 -6.15797,9.97976 C 695.68922,248.53225 697.73598,245.19034 700,242 Z"
     fill="#cceb5e"
     id="path134" />
  <path
     d="m 262,623 c 15.8456,6.21264 0.43417,51.24676 4.08875,18.02625 C 265.86948,634.79466 263.41364,628.99292 262,623 Z"
     fill="#caec55"
     id="path136" />
  <path
     d="m 249,568 c 12.36575,6.41599 53.33886,10.13108 16.80385,8.53455 C 259.83995,574.99443 252.40734,573.81137 249,568 Z"
     fill="#d3f65f"
     id="path138" />
</svg>
